<svg role="graphics-symbol" viewBox="0 0 16 16" class="speechBubbleFilled" style="width: 16px; height: 16px; display: block; fill: inherit; flex-shrink: 0; margin-top: 1px; margin-right: 4px;"><path d="M4.32 15.424c.39 0 .677-.192 1.149-.609l2.344-2.064h4.116c2.057 0 3.213-1.19 3.213-3.22V4.22c0-2.03-1.156-3.22-3.213-3.22H3.213C1.163 1 0 2.19 0 4.22V9.53c0 2.037 1.196 3.22 3.165 3.22h.28v1.675c0 .608.322.998.875.998zm.342-1.531v-1.949c0-.403-.178-.56-.56-.56H3.26c-1.285 0-1.9-.65-1.9-1.894V4.26c0-1.243.615-1.893 1.9-1.893h8.627c1.278 0 1.893.65 1.893 1.894v5.23c0 1.243-.615 1.893-1.893 1.893h-4.15c-.417 0-.622.068-.909.369l-2.167 2.14zm-.567-8.668h6.884a.433.433 0 00.423-.438.425.425 0 00-.423-.417H4.095a.419.419 0 00-.417.417c0 .24.184.438.417.438zm0 2.167h6.884a.427.427 0 000-.855H4.095a.425.425 0 00-.417.424c0 .24.184.43.417.43zm0 2.173h4.484c.24 0 .424-.191.424-.423 0-.24-.185-.431-.424-.431H4.095a.422.422 0 00-.417.43.42.42 0 00.417.424z"></path></svg>